Coordinates
version=1
nRows=13
nColumns=36
inDegrees=yes

Units are S.I. units (second, meters, Newtons, ...)
If the header above contains a line with 'inDegrees', this indicates whether rotational values are in degrees (yes) or radians (no).

endheader
time	pelvis_tilt	pelvis_list	pelvis_rotation	pelvis_tx	pelvis_ty	pelvis_tz	hip_flexion_r	hip_adduction_r	hip_rotation_r	knee_angle_r	knee_angle_r_beta	ankle_angle_r	subtalar_angle_r	mtp_angle_r	hip_flexion_l	hip_adduction_l	hip_rotation_l	knee_angle_l	knee_angle_l_beta	ankle_angle_l	subtalar_angle_l	mtp_angle_l	lumbar_extension	lumbar_bending	lumbar_rotation	arm_flex_r	arm_add_r	arm_rot_r	elbow_flex_r	pro_sup_r	arm_flex_l	arm_add_l	arm_rot_l	elbow_flex_l	pro_sup_l
      6.80000000	    -12.33535157	     -8.22025947	      6.26314195	      1.02477705	      0.80944773	      0.08765176	     48.60983882	     15.43149595	     -5.31983439	     58.53777706	      1.02167695	     37.68945744	     -3.40469854	     -7.49999987	     76.38607999	    -10.65726517	      7.96325667	     49.14759874	      0.85778742	     10.58548191	     -3.49415135	     -7.49999987	    -17.36847005	     10.03174407	      5.23649520	     70.69812930	     -0.76654872	     74.41848762	    121.30546538	    101.34035385	     73.00633143	     -0.62226268	     68.28826156	    119.00907434	    107.85039573
      6.81666670	    -10.54095845	     -7.40420281	      7.51402657	      1.03108252	      0.82158475	      0.08890607	     44.64441096	     14.93709910	     -4.27575324	     55.94186882	      0.97636980	     36.63149428	     -4.66621192	     -7.49999987	     73.01343730	    -10.04175063	      7.09292368	     48.62204892	      0.84861484	     10.17714201	     -4.19511655	     -7.49999987	    -17.74293593	      8.78329537	      3.89679781	     70.66040226	     -0.24589739	     73.88804912	    120.88719229	    101.04356975	     73.50536410	     -0.90658220	     68.42655300	    117.69194630	    107.44414293
      6.83333330	     -8.02399991	     -6.24485921	      8.44946236	      1.03081548	      0.82935703	      0.08905299	     40.30817497	     14.28653289	     -3.28242776	     53.90858018	      0.94088222	     35.78128644	     -5.38045412	     -7.49999987	     68.95459692	     -9.60014681	      6.23975910	     48.40182360	      0.84477119	      9.78570060	     -5.15709818	     -7.49999987	    -19.42963636	      7.23512787	      3.00292538	     71.25756112	      0.52107516	     73.09725800	    120.73121570	    100.94935867	     75.20030954	     -0.89488196	     68.86520598	    118.99980295	    106.86919976
      6.85000000	     -6.32038591	     -5.25794091	      9.18766985	      1.03093214	      0.84051621	      0.08846577	     37.04211722	     13.54082640	     -2.54380075	     51.97665387	      0.90716374	     34.64672388	     -6.15018097	     -7.49999987	     65.76866022	     -9.02467144	      5.49227528	     48.07512824	      0.83906928	      9.43616597	     -6.11880027	     -7.49999987	    -20.48628458	      6.21355411	      1.98481933	     71.92009472	      0.41921665	     71.12103947	    120.45826168	    100.64482921	     76.63897631	     -0.85664027	     69.05099549	    119.34168517	    106.47013776
      6.86666670	     -4.84308734	     -4.42575169	      9.85253273	      1.03810727	      0.85301871	      0.09080825	     34.09299416	     12.85773377	     -1.93301780	     49.86757755	      0.87035342	     33.19373033	     -7.05032706	     -7.49999987	     62.62074558	     -8.57107414	      4.78621628	     47.44407342	      0.82805529	      8.69411288	     -7.18554808	     -7.49999987	    -20.83099473	      5.12116555	      1.07592910	     71.62915050	      1.45545819	     70.90536462	    120.15812371	    100.21140089	     76.53272433	     -1.60851695	     68.47917647	    118.50175971	    105.90906514
      6.88333330	     -2.90889308	     -3.43932410	     10.28009053	      1.03800334	      0.86493825	      0.09024330	     30.45563867	     12.16241507	     -1.09678012	     47.45043288	      0.82816629	     31.59881546	     -7.52546169	     -7.49999987	     58.80179651	     -8.20453342	      3.89468482	     46.50919473	      0.81173858	      7.85609111	     -8.02031077	     -7.49999987	    -22.00834307	      4.06330688	      0.94625057	     71.68180812	      1.76857080	     70.08041892	    120.19431476	     99.79590697	     76.84047192	     -1.45922463	     67.92808620	    118.50508028	    105.46133352
      6.90000000	     -1.24432044	     -2.23448399	     10.60035804	      1.03940501	      0.88501414	      0.09035429	     26.63009107	     11.14149287	     -0.26417490	     44.27020770	      0.77266088	     29.59916258	     -7.97282034	     -7.49999987	     54.68836320	     -7.66111574	      2.65503302	     45.00608081	      0.78550429	      6.85327359	     -8.78786230	     -7.49999987	    -23.20504915	      2.74304061	      0.73021382	     71.06855069	      1.84340354	     69.88795988	    119.20122455	     97.83554254	     76.43479233	     -1.99117880	     68.51625948	    117.91250587	    103.13345968
      6.91666670	     -0.45531277	     -1.49519529	     10.71372307	      1.04057809	      0.89191502	      0.09032030	     24.06207864	     10.47689437	      0.45775661	     41.32365188	      0.72123378	     27.33780039	     -8.34164517	     -7.49999987	     52.02106428	     -7.40881091	      1.84579939	     44.12268851	      0.77008619	      6.17467416	     -9.30726834	     -7.49999987	    -23.21295931	      1.62220910	      0.69864373	     70.64973207	      2.32872665	     68.47633090	    118.87469362	     97.74083730	     76.53753002	     -2.17814745	     67.96309379	    118.47645425	    103.15218405
      6.93333330	      0.60385244	     -0.69201076	     10.86831158	      1.04107343	      0.89655601	      0.09008235	     21.14640026	      9.77603502	      1.10480445	     38.33053127	      0.66899397	     25.56695552	     -8.17274168	     -7.49999987	     49.23178811	     -7.08715845	      1.21828572	     43.59222614	      0.76082787	      6.23081459	     -9.56041816	     -7.49999987	    -23.49305994	      0.64391603	      0.69643654	     71.24031902	      3.10144792	     67.37976794	    119.43452300	     97.51191566	     77.45931682	     -1.44657161	     67.19011481	    118.04183269	    103.10132158
      6.95000000	      1.24461947	      0.00474424	     10.97817646	      1.04212235	      0.90070498	      0.09031838	     19.04804165	      9.11061273	      1.50029465	     35.84014853	      0.62552860	     23.95157464	     -8.04845678	     -7.49999987	     47.37958728	     -6.75260508	      0.63448358	     43.93644757	      0.76683567	      6.49866049	     -9.74099038	     -7.49999987	    -23.14926238	     -0.29551388	      0.36758310	     71.44538181	      3.49419922	     66.58323471	    118.71273112	     97.29508980	     78.41618954	     -1.29523572	     66.99351544	    118.70528340	    102.96122243
      6.96666670	      1.72974250	      0.64601700	     10.85099922	      1.03798777	      0.91264273	      0.08886031	     17.11952757	      8.41164109	      1.96869141	     33.28031024	      0.58085099	     22.27569584	     -7.78712493	     -7.49999987	     45.74605359	     -6.36166592	     -0.03237215	     44.02018247	      0.76829712	      7.13092208	     -9.23329455	     -7.49999987	    -23.20622302	     -1.04456241	      0.37346189	     72.17172405	      3.36151232	     66.45213307	    118.76788027	     94.42448436	     79.34335189	     -1.17450792	     67.47970768	    119.80418400	     99.00609473
      6.98333330	      2.63778685	      1.64294954	     10.54737397	      1.05077127	      0.92384967	      0.08804599	     13.98712799	      7.42780595	      2.47510395	     30.05914110	      0.52463098	     20.97239174	     -7.11989964	     -7.49999987	     42.89287795	     -5.69815343	     -0.97604551	     43.25985882	      0.75502697	      8.34513832	     -8.27734940	     -7.49999987	    -23.37904830	     -2.22490086	      0.73448815	     72.06767891	      3.72101293	     66.42774640	    119.36319070	     94.55285270	     78.88250817	     -0.87937816	     67.90540520	    119.78962029	     99.69492425
      7.00000000	      3.50695424	      2.77391096	     10.20608159	      1.05091555	      0.93745198	      0.08761637	     10.79360806	      6.21713162	      2.85594051	     26.58941154	      0.46407278	     19.30076123	     -6.77505648	     -7.49999987	     39.46204551	     -4.91765589	     -2.30621875	     41.85784222	      0.73055716	      9.01213830	     -6.87960294	     -7.49999987	    -23.89250799	     -3.51978711	      1.12226558	     71.85924079	      3.05895886	     66.55449792	    118.80452843	     94.62216452	     78.82896879	     -0.82210183	     68.81326877	    119.91144126	    100.24178646
